PathFileType	4	(X/Y/Z)	/tmp/tmp8evqqdi7//results/MarkerData/Run_5.trc
DataRate	CameraRate	NumFrames	NumMarkers	Units	OrigDataRate	OrigDataStartFrame	OrigNumFrames
100	100	10	42	m	100	272	544
Frame#	Time	C7			CLAV			LACR			LASI			LCAL			LFAradius			LFAsuperior			LFAulna			LLEL			LMEL			LMT5			LPSI			LTB1			LTB2			LTB3			LTH1			LTH2			LTH3			LTOE			LUA1			LUA2			LUA3			RACR			RASI			RCAL			RFAradius			RFAsuperior			RFAulna			RLEL			RMEL			RMT5			RPSI			RTB1			RTB2			RTB3			RTH1			RTH2			RTH3			RTOE			RUA1			RUA2			RUA3		
		X1	Y1	Z1	X2	Y2	Z2	X3	Y3	Z3	X4	Y4	Z4	X5	Y5	Z5	X6	Y6	Z6	X7	Y7	Z7	X8	Y8	Z8	X9	Y9	Z9	X10	Y10	Z10	X11	Y11	Z11	X12	Y12	Z12	X13	Y13	Z13	X14	Y14	Z14	X15	Y15	Z15	X16	Y16	Z16	X17	Y17	Z17	X18	Y18	Z18	X19	Y19	Z19	X20	Y20	Z20	X21	Y21	Z21	X22	Y22	Z22	X23	Y23	Z23	X24	Y24	Z24	X25	Y25	Z25	X26	Y26	Z26	X27	Y27	Z27	X28	Y28	Z28	X29	Y29	Z29	X30	Y30	Z30	X31	Y31	Z31	X32	Y32	Z32	X33	Y33	Z33	X34	Y34	Z34	X35	Y35	Z35	X36	Y36	Z36	X37	Y37	Z37	X38	Y38	Z38	X39	Y39	Z39	X40	Y40	Z40	X41	Y41	Z41	X42	Y42	Z42

273	2.75	0.776993	1.41906	-0.310178	0.900234	1.3011	-0.299521	0.821647	1.3862	-0.462272	0.78972	0.887562	-0.418032	0.439573	0.585153	-0.346329	0.908266	1.02014	-0.517592	0.809756	1.08819	-0.6047	0.888883	0.983504	-0.575466	0.697154	1.1178	-0.636555	0.665718	1.09054	-0.574043	0.27306	0.487289	-0.411166	0.632052	0.957164	-0.369442	0.670717	0.389207	-0.377893	0.600019	0.462169	-0.432981	0.483468	0.465718	-0.353548	0.748192	0.693921	-0.468154	0.808952	0.590493	-0.462701	0.760925	0.487564	-0.452892	0.275524	0.441718	-0.313914	0.752751	1.28433	-0.554792	0.692579	1.22545	-0.527753	0.729356	1.1925	-0.60241	0.825226	1.37861	-0.166452	0.77987	0.934101	-0.177614	0.646591	0.109189	-0.319579	0.83468	0.995707	-0.0496295	0.751687	1.06826	0.0256994	0.793084	0.945201	-0.0159129	0.661197	1.14424	0.0371627	0.620646	1.12269	-0.0234221	0.809347	0.0479693	-0.216162	0.618914	0.967828	-0.270542	0.876187	0.337496	-0.248444	0.816272	0.272569	-0.207881	0.78772	0.178144	-0.286775	0.774995	0.702576	-0.119387	0.861247	0.643127	-0.132276	0.842715	0.539757	-0.159592	0.867828	0.0689452	-0.313877	0.759658	1.28924	-0.0592349	0.679213	1.24599	-0.0757105	0.703657	1.19137	-0.00190814
274	2.76	0.774569	1.41912	-0.313092	0.898061	1.30138	-0.30117	0.818635	1.3872	-0.463212	0.784607	0.88952	-0.419711	0.46964	0.578318	-0.349849	0.884469	1.01034	-0.522373	0.789933	1.08762	-0.606131	0.862691	0.979084	-0.582534	0.677844	1.12563	-0.633024	0.648669	1.09996	-0.569113	0.317328	0.462139	-0.419272	0.627602	0.958635	-0.36673	0.717387	0.394593	-0.3769	0.642859	0.460923	-0.434044	0.52491	0.460127	-0.357041	0.757348	0.697101	-0.467916	0.832594	0.601298	-0.461406	0.796947	0.495283	-0.45195	0.319858	0.419592	-0.320199	0.744371	1.28843	-0.554456	0.684297	1.23328	-0.521942	0.713638	1.19911	-0.59888	0.825985	1.37887	-0.167615	0.777165	0.932082	-0.177957	0.599987	0.110431	-0.319551	0.863444	1.00009	-0.055266	0.778967	1.0665	0.0249951	0.827918	0.946679	-0.0187481	0.683503	1.13517	0.0419586	0.641545	1.11068	-0.0165566	0.762185	0.0483118	-0.215886	0.616604	0.969771	-0.267597	0.840436	0.327495	-0.258615	0.77938	0.267516	-0.208976	0.745008	0.175043	-0.287891	0.765955	0.697484	-0.120239	0.849973	0.63323	-0.135784	0.824839	0.531696	-0.160791	0.82117	0.0685598	-0.313963	0.766662	1.28733	-0.0591247	0.689298	1.2368	-0.0729884	0.720365	1.18534	0.000748698
275	2.77	0.771252	1.41947	-0.312869	0.896228	1.30216	-0.30276	0.815156	1.38898	-0.463411	0.778844	0.891877	-0.42267	0.495503	0.566874	-0.352146	0.859989	1.00539	-0.52673	0.770296	1.09068	-0.607249	0.838097	0.979182	-0.589607	0.659116	1.13565	-0.62995	0.632371	1.11075	-0.565164	0.362772	0.431869	-0.427495	0.623111	0.960248	-0.363168	0.764448	0.403187	-0.376981	0.684691	0.462094	-0.434232	0.566796	0.452826	-0.360129	0.766215	0.703491	-0.467413	0.854304	0.617504	-0.460344	0.831802	0.509719	-0.450505	0.366331	0.390291	-0.32802	0.735224	1.29379	-0.55348	0.675496	1.24159	-0.516651	0.698733	1.20763	-0.596021	0.828131	1.37992	-0.16852	0.775214	0.929924	-0.17847	0.552594	0.112202	-0.319681	0.890801	1.01044	-0.0628044	0.805524	1.06947	0.0233324	0.862394	0.954408	-0.0244168	0.705963	1.13035	0.0458679	0.663211	1.10289	-0.0108925	0.713987	0.0485781	-0.215687	0.614556	0.972092	-0.264076	0.802927	0.319525	-0.266698	0.741276	0.26499	-0.209896	0.701564	0.173198	-0.287584	0.755671	0.694195	-0.121003	0.836645	0.626767	-0.139029	0.805	0.525963	-0.161335	0.773358	0.0686432	-0.313703	0.775846	1.28745	-0.0586747	0.701196	1.23169	-0.0700617	0.737498	1.18276	0.00292228
276	2.78	0.768541	1.42058	-0.310271	0.894884	1.30361	-0.304412	0.811512	1.39126	-0.463334	0.773401	0.894908	-0.425768	0.518294	0.550088	-0.353148	0.836627	1.00568	-0.530642	0.751014	1.09702	-0.607895	0.814516	0.982864	-0.59537	0.641147	1.14706	-0.627416	0.615904	1.12245	-0.56219	0.410862	0.398171	-0.435939	0.619426	0.962184	-0.359687	0.810057	0.415007	-0.376891	0.724502	0.465613	-0.433517	0.608713	0.444239	-0.362564	0.774324	0.712781	-0.466927	0.873205	0.638201	-0.459403	0.864162	0.529724	-0.448731	0.416792	0.355381	-0.337486	0.725809	1.30022	-0.551982	0.665996	1.25004	-0.512409	0.684899	1.21715	-0.594059	0.83078	1.38208	-0.16949	0.773705	0.928642	-0.178709	0.504252	0.114751	-0.319463	0.916143	1.02574	-0.0715476	0.831248	1.07637	0.0206337	0.895089	0.967456	-0.0326687	0.728523	1.12903	0.0492122	0.685003	1.09878	-0.00577393	0.66449	0.0483735	-0.215371	0.61299	0.974582	-0.260956	0.764288	0.313178	-0.270329	0.700769	0.262921	-0.210721	0.656692	0.17195	-0.286982	0.743273	0.692095	-0.122163	0.819529	0.621062	-0.141723	0.781069	0.521096	-0.162534	0.724203	0.0685668	-0.313071	0.786842	1.28894	-0.058238	0.713889	1.23062	-0.0658988	0.75502	1.18321	0.00476066
277	2.79	0.767243	1.42268	-0.307678	0.894093	1.30594	-0.30631	0.80783	1.39402	-0.463372	0.769464	0.899156	-0.427979	0.539899	0.527614	-0.352939	0.815362	1.0103	-0.534216	0.732363	1.10572	-0.608331	0.791286	0.988986	-0.599036	0.624138	1.15932	-0.625256	0.598922	1.13509	-0.559741	0.463025	0.362812	-0.444325	0.617058	0.964908	-0.357098	0.852481	0.429844	-0.375435	0.761436	0.47107	-0.432001	0.650324	0.43478	-0.364188	0.781782	0.724392	-0.466737	0.889229	0.661783	-0.45829	0.892935	0.553328	-0.4466	0.473107	0.317489	-0.347766	0.716566	1.30759	-0.550132	0.656098	1.25893	-0.509516	0.672098	1.22707	-0.592779	0.833296	1.38544	-0.170827	0.772623	0.928012	-0.179408	0.455196	0.118444	-0.318607	0.939131	1.04485	-0.0807286	0.855869	1.0866	0.0170942	0.924961	0.984612	-0.0426852	0.751013	1.13066	0.0521587	0.706499	1.09779	-0.000818929	0.613958	0.0478862	-0.215126	0.612107	0.977226	-0.258756	0.72474	0.308546	-0.26973	0.658153	0.260683	-0.211923	0.610078	0.17139	-0.287054	0.728506	0.689997	-0.124127	0.79838	0.613889	-0.144036	0.752646	0.516084	-0.165115	0.674013	0.06832	-0.312627	0.798594	1.29174	-0.0582842	0.726628	1.23271	-0.060043	0.772794	1.18621	0.0063317
278	2.8	0.767134	1.42579	-0.306909	0.89385	1.30928	-0.308595	0.804168	1.39733	-0.463647	0.76776	0.90485	-0.428948	0.562465	0.499693	-0.351812	0.796159	1.01765	-0.537645	0.714487	1.1157	-0.608952	0.76829	0.996618	-0.60093	0.60816	1.1723	-0.623079	0.582096	1.14884	-0.557193	0.519972	0.327615	-0.451887	0.615924	0.968713	-0.355695	0.890546	0.446969	-0.372404	0.794967	0.477559	-0.429984	0.691416	0.42478	-0.365023	0.789265	0.737866	-0.467019	0.902684	0.686745	-0.456791	0.917216	0.578583	-0.444085	0.536288	0.280117	-0.357276	0.707858	1.31575	-0.548147	0.646434	1.26871	-0.507701	0.660174	1.23724	-0.591752	0.835624	1.38986	-0.17268	0.772128	0.927335	-0.181206	0.406079	0.123607	-0.31701	0.95945	1.06675	-0.0898057	0.878899	1.09956	0.0131425	0.951466	1.00481	-0.0533881	0.773062	1.13489	0.0547297	0.727481	1.09943	0.00398512	0.562993	0.0474325	-0.215053	0.611958	0.979981	-0.257484	0.684359	0.306097	-0.2665	0.614404	0.25938	-0.213418	0.562243	0.172163	-0.287541	0.712154	0.687841	-0.126886	0.774412	0.605784	-0.146294	0.721053	0.511586	-0.168669	0.623439	0.0682076	-0.31262	0.810015	1.29613	-0.0589897	0.739352	1.23688	-0.0530337	0.790489	1.19135	0.00767121
279	2.81	0.767498	1.42976	-0.307953	0.894082	1.31361	-0.311278	0.800688	1.40121	-0.464098	0.768276	0.911624	-0.42897	0.587884	0.467256	-0.350333	0.778534	1.0264	-0.540988	0.697372	1.12629	-0.609796	0.746016	1.00519	-0.60195	0.593176	1.18601	-0.62041	0.566605	1.16363	-0.553985	0.581556	0.294147	-0.457588	0.615695	0.973528	-0.35523	0.92392	0.465003	-0.368707	0.825168	0.483642	-0.427921	0.731944	0.41442	-0.365237	0.797383	0.752922	-0.467898	0.91379	0.71207	-0.45496	0.936521	0.603981	-0.441382	0.605936	0.246766	-0.364218	0.700054	1.3246	-0.546285	0.637759	1.27965	-0.506145	0.649045	1.24789	-0.590517	0.838068	1.3951	-0.175061	0.772242	0.926416	-0.183574	0.357864	0.130632	-0.314873	0.976814	1.09046	-0.0984843	0.899907	1.11464	0.00919381	0.974567	1.0272	-0.0638037	0.79422	1.14138	0.0568778	0.747773	1.10333	0.00844689	0.512032	0.0470836	-0.215065	0.612462	0.982711	-0.25684	0.643259	0.306292	-0.262272	0.570274	0.260661	-0.214454	0.514337	0.174981	-0.287579	0.695587	0.686752	-0.130013	0.749597	0.599219	-0.148715	0.688249	0.509448	-0.172013	0.572938	0.0681927	-0.312835	0.820479	1.30223	-0.0601666	0.752271	1.24255	-0.046194	0.807642	1.19836	0.0087962
280	2.82	0.767813	1.43428	-0.309578	0.894654	1.31871	-0.314235	0.797621	1.40554	-0.464637	0.770668	0.918826	-0.428413	0.617526	0.431868	-0.349299	0.762144	1.03593	-0.544064	0.681049	1.13734	-0.610402	0.725121	1.01442	-0.602702	0.579182	1.20045	-0.616873	0.553208	1.17911	-0.549738	0.647051	0.26346	-0.460444	0.616249	0.979085	-0.355259	0.953062	0.482223	-0.365606	0.852858	0.487714	-0.426264	0.772041	0.403794	-0.364962	0.806142	0.769256	-0.469408	0.922539	0.736916	-0.453118	0.951077	0.628372	-0.438859	0.680185	0.219926	-0.367173	0.693473	1.334	-0.544736	0.630746	1.29171	-0.503985	0.638772	1.25931	-0.588676	0.840875	1.40094	-0.177867	0.772762	0.925776	-0.185179	0.311767	0.140164	-0.312486	0.991113	1.11493	-0.10658	0.918689	1.13124	0.00545578	0.99455	1.05103	-0.0733142	0.814069	1.14973	0.0585596	0.767084	1.1091	0.012366	0.461106	0.046657	-0.215056	0.613483	0.985293	-0.256544	0.601797	0.309577	-0.258046	0.526287	0.265788	-0.214219	0.467797	0.180423	-0.286603	0.679987	0.687891	-0.132909	0.725812	0.596305	-0.151225	0.655939	0.511357	-0.17408	0.522516	0.0677934	-0.313047	0.829856	1.30982	-0.0614938	0.765194	1.24965	-0.0408341	0.823793	1.20705	0.00968306
281	2.83	0.768013	1.43908	-0.31074	0.895363	1.3243	-0.317286	0.795072	1.41015	-0.46518	0.774767	0.926083	-0.427331	0.652132	0.395407	-0.349369	0.746935	1.04601	-0.546584	0.665755	1.14897	-0.610155	0.706036	1.02423	-0.603204	0.566313	1.21545	-0.612315	0.541917	1.19487	-0.544332	0.715441	0.236153	-0.459865	0.617702	0.985171	-0.355459	0.978819	0.497212	-0.363711	0.87929	0.488633	-0.425266	0.811905	0.393074	-0.364135	0.814959	0.786287	-0.471282	0.928991	0.760063	-0.451665	0.961809	0.650673	-0.436803	0.756236	0.200551	-0.365521	0.688224	1.34385	-0.5435	0.625744	1.30451	-0.500862	0.629489	1.27154	-0.585954	0.844029	1.40715	-0.18091	0.773501	0.926092	-0.185153	0.269275	0.15301	-0.309745	1.00246	1.1392	-0.113952	0.935175	1.1488	0.00193367	1.01168	1.0755	-0.0817301	0.832242	1.15948	0.0597983	0.785001	1.11634	0.0156593	0.410205	0.0460233	-0.214977	0.614924	0.987767	-0.256526	0.560877	0.31658	-0.254038	0.483224	0.275543	-0.212336	0.424219	0.188902	-0.284253	0.665856	0.691697	-0.135096	0.704017	0.597555	-0.153415	0.625236	0.518025	-0.174655	0.472258	0.0666379	-0.313255	0.838271	1.31848	-0.0627803	0.77745	1.25812	-0.0374827	0.838591	1.21718	0.0102677
282	2.84	0.768309	1.44408	-0.311275	0.895988	1.33005	-0.32029	0.792921	1.41498	-0.46562	0.780424	0.933489	-0.425731	0.691711	0.359579	-0.350533	0.732999	1.05643	-0.548321	0.651851	1.16114	-0.608732	0.688939	1.03462	-0.603161	0.554786	1.23067	-0.606811	0.532387	1.21052	-0.53796	0.785485	0.212588	-0.455877	0.620128	0.991713	-0.355661	1.00191	0.509355	-0.362727	0.905411	0.486141	-0.424887	0.851632	0.382581	-0.362648	0.823008	0.802927	-0.472799	0.933697	0.779847	-0.450783	0.969926	0.669663	-0.435313	0.831288	0.188265	-0.359615	0.684116	1.35393	-0.542381	0.622598	1.31734	-0.49702	0.621309	1.2843	-0.582296	0.847326	1.41336	-0.183978	0.774517	0.927628	-0.183828	0.231989	0.169827	-0.306051	1.01108	1.16245	-0.120552	0.94928	1.16675	-0.00141188	1.02597	1.09972	-0.0891843	0.84844	1.17008	0.0607115	0.801122	1.12453	0.0184188	0.359812	0.0456174	-0.214822	0.616799	0.990392	-0.256801	0.522141	0.327882	-0.249882	0.442448	0.290279	-0.208884	0.385218	0.20054	-0.27991	0.653024	0.698112	-0.136418	0.683996	0.60237	-0.154693	0.596773	0.529261	-0.174404	0.423097	0.065081	-0.313339	0.84592	1.32776	-0.064064	0.788405	1.26755	-0.0357297	0.85178	1.22825	0.0105114
